<?xml version="1.0" encoding="UTF-8"?>
<svg version="1.1" xmlns="http://www.w3.org/2000/svg" width="512" height="512">
<path d="M0 0 C2.19516154 -0.00456867 4.39032166 -0.00987627 6.58547974 -0.0158844 C11.17309399 -0.02478843 15.76053392 -0.0224235 20.34814453 -0.01245117 C26.19728946 -0.00096911 32.04582996 -0.02117574 37.89489555 -0.05036831 C42.42481239 -0.06880544 46.95458642 -0.06842283 51.4845314 -0.06273079 C53.63967867 -0.06257847 55.79483618 -0.06854783 57.94994736 -0.08102226 C74.40529999 -0.16286242 91.57338619 0.71841156 104.1953125 12.80859375 C104.67355469 13.33195312 105.15179688 13.8553125 105.64453125 14.39453125 C108.57805224 16.03041507 111.2360552 14.91771234 114.5078125 14.43359375 C117.19638857 14.33516352 119.85954954 14.27667303 122.54760742 14.27246094 C123.31939331 14.26749603 124.0911792 14.26253113 124.88635254 14.25741577 C127.42033812 14.2429032 129.95426107 14.23600991 132.48828125 14.23046875 C133.36052149 14.22764137 134.23276173 14.224814 135.13143349 14.22190094 C139.74883955 14.20695134 144.36621472 14.1976956 148.98364258 14.19335938 C153.72310658 14.18788585 158.4622817 14.16386928 163.20165539 14.13538742 C166.8728159 14.11664857 170.54390842 14.11154946 174.21511269 14.1100235 C175.96080412 14.10702098 177.70649506 14.09907494 179.4521389 14.08583832 C197.82237003 13.95650068 212.45151774 16.9327588 226.22265625 30.02734375 C237.21008577 41.59701312 241.63242429 55.10622959 241.7109375 70.8125 C241.71663757 71.70218979 241.72233765 72.59187958 241.72821045 73.50852966 C241.73762078 75.38189518 241.74417858 77.25527695 241.74804688 79.12866211 C241.75779298 81.99036282 241.78886977 84.85135689 241.8203125 87.71289062 C241.82683964 89.53775618 241.83209124 91.36262683 241.8359375 93.1875 C241.8482843 94.0396962 241.8606311 94.8918924 241.87335205 95.76991272 C241.85581582 100.45099796 241.65970254 103.70284869 238.5078125 107.43359375 C234.94901075 109.79694454 231.76633321 109.68614025 227.56678963 109.69086266 C226.86498512 109.69436873 226.16318062 109.6978748 225.44010931 109.70148712 C223.07670409 109.71082799 220.71354383 109.70587096 218.35012817 109.70101929 C216.64328271 109.70475419 214.93643895 109.70935507 213.22959793 109.71474993 C208.52994792 109.72701502 203.83036892 109.72671535 199.13070655 109.72436118 C194.06584554 109.7239539 189.00100757 109.73498362 183.93615723 109.74447632 C174.00984474 109.76110629 164.083556 109.76658676 154.15723075 109.76770107 C146.09101166 109.76865056 138.02480043 109.77275587 129.95858383 109.77910233 C107.10286966 109.79671983 84.24717429 109.80594035 61.39145328 109.80444138 C59.54228596 109.80432151 59.54228596 109.80432151 57.65576172 109.80419922 C56.42148307 109.80411746 55.18720443 109.8040357 53.91552339 109.80395146 C33.90589937 109.80313831 13.89635058 109.82228187 -6.11325167 109.85047595 C-26.64573797 109.87917915 -47.17818755 109.89301768 -67.71069443 109.8912884 C-79.24348064 109.89062363 -90.77618797 109.89615389 -102.30895615 109.9176445 C-112.127181 109.93582254 -121.94529123 109.94023145 -131.76352559 109.92662565 C-136.77488637 109.92007904 -141.78602702 109.92003973 -146.7973671 109.93733215 C-151.38300474 109.95299319 -155.96824645 109.95027096 -160.55387403 109.93276389 C-162.21468642 109.92967857 -163.87552785 109.93338367 -165.53630601 109.94448404 C-167.79118002 109.95855966 -170.04465642 109.94805646 -172.29948235 109.93137169 C-174.17926303 109.93202379 -174.17926303 109.93202379 -176.09701908 109.93268907 C-180.16395906 109.33484223 -182.34007048 108.03493502 -185.4921875 105.43359375 C-186.8065349 101.49055154 -186.67459896 97.70585331 -186.6953125 93.59375 C-186.70101257 92.71641708 -186.70671265 91.83908417 -186.71258545 90.93516541 C-186.72203667 89.07324426 -186.72856992 87.21130638 -186.73242188 85.34936523 C-186.74204428 82.53793809 -186.77303092 79.72726859 -186.8046875 76.91601562 C-186.91398409 58.62338979 -183.88982276 43.28008882 -170.7734375 29.6171875 C-156.57554818 16.02708454 -140.94615034 14.11994618 -122.10546875 14.203125 C-120.31666599 14.20431903 -118.52786259 14.20476949 -116.73905945 14.20451355 C-113.0046288 14.20607136 -109.27029497 14.21430863 -105.53588867 14.2277832 C-100.75787679 14.24480894 -95.97997063 14.24859602 -91.20193195 14.24783802 C-87.51386005 14.24811031 -83.82581107 14.25360038 -80.13774681 14.26083946 C-78.37594971 14.26401231 -76.61415003 14.26599029 -74.85235023 14.26673317 C-72.39021018 14.26890937 -69.92818061 14.27768007 -67.46606445 14.28833008 C-66.74436569 14.28787689 -66.02266693 14.28742371 -65.27909851 14.28695679 C-62.15017222 14.30667466 -59.23171324 14.47932984 -56.14518738 15.02128601 C-53.43985726 15.70968431 -53.43985726 15.70968431 -51.0703125 14.17578125 C-50.30203125 13.55960937 -49.53375 12.9434375 -48.7421875 12.30859375 C-33.37831943 0.77995134 -18.57462998 -0.0339268 0 0 Z M-33.4921875 23.43359375 C-33.8221875 24.42359375 -34.1521875 25.41359375 -34.4921875 26.43359375 C-32.97625 27.57828125 -32.97625 27.57828125 -31.4296875 28.74609375 C-22.73244185 36.22854193 -17.7063962 47.36255026 -15.4921875 58.43359375 C-15.1621875 69.32359375 -14.8321875 80.21359375 -14.4921875 91.43359375 C26.7578125 91.43359375 68.0078125 91.43359375 110.5078125 91.43359375 C112.06559379 61.77732 112.06559379 61.77732 101.5078125 35.43359375 C100.3940625 33.85578125 100.3940625 33.85578125 99.2578125 32.24609375 C88.75389045 21.5034462 77.52156281 18.04532324 62.85688019 17.86594677 C59.86795955 17.85172791 56.8795598 17.85810183 53.890625 17.8671875 C51.7851433 17.86194331 49.67966395 17.85566393 47.57418823 17.84840393 C43.17483415 17.83803336 38.77580418 17.84251243 34.37646484 17.85717773 C28.76930421 17.87434956 23.16316993 17.85087164 17.55612373 17.81568813 C13.21147004 17.79361026 8.86705794 17.79518087 4.52236557 17.80345345 C2.45653026 17.80426748 0.39067621 17.79751011 -1.67510605 17.78268242 C-18.24741123 17.51511438 -18.24741123 17.51511438 -33.4921875 23.43359375 Z M-161.66015625 46.9921875 C-171.59958137 60.23769006 -168.4921875 74.87340341 -168.4921875 91.43359375 C-123.6121875 91.43359375 -78.7321875 91.43359375 -32.4921875 91.43359375 C-30.80413325 64.20891521 -30.80413325 64.20891521 -42.4921875 42.43359375 C-52.97875779 32.47711382 -65.31244925 31.82419968 -79.0234375 31.90234375 C-80.70772525 31.89964235 -82.39201147 31.89575457 -84.07629395 31.89074707 C-87.58958934 31.88488242 -91.10247524 31.89331605 -94.61572266 31.91210938 C-99.09081886 31.93489738 -103.56495508 31.92175785 -108.04001617 31.89781952 C-111.51303171 31.88327879 -114.98582434 31.88800513 -118.45884705 31.89833069 C-120.10766212 31.9009752 -121.75649828 31.89780955 -123.4052887 31.88841248 C-139.18362936 31.81819312 -150.99864328 34.61830916 -161.66015625 46.9921875 Z M121.5078125 32.43359375 C121.98404901 34.02613919 122.46068993 35.61856369 122.9375 37.2109375 C123.20288574 38.09773193 123.46827148 38.98452637 123.74169922 39.89819336 C124.3572629 41.93535999 124.99196373 43.96673933 125.6328125 45.99609375 C129.24220463 60.17584856 128.10483773 78.13542642 128.5078125 91.43359375 C159.8578125 91.43359375 191.2078125 91.43359375 223.5078125 91.43359375 C224.61331793 63.64795647 224.61331793 63.64795647 212.3203125 41.62109375 C205.1876519 34.88646108 195.9915591 32.30337741 186.44433594 32.32006836 C185.74149475 32.31992233 185.03865356 32.31977631 184.31451416 32.31962585 C181.99870687 32.32032076 179.68298069 32.32809337 177.3671875 32.3359375 C175.75864709 32.33780318 174.15010612 32.33922638 172.54156494 32.34022522 C168.31325708 32.34403859 164.08498371 32.3538588 159.85668945 32.3649292 C155.53988105 32.37516869 151.22306706 32.37972828 146.90625 32.38476562 C138.44008836 32.39548213 129.97395472 32.41254438 121.5078125 32.43359375 Z " fill="#000000" transform="translate(228.4921875,337.56640625)"/>
<path d="M0 0 C4.74643583 7.97401219 0.55820798 20.2483453 -1.17578125 28.7421875 C-1.46070229 30.17167544 -1.74496638 31.60129446 -2.02861023 33.03103638 C-2.62124449 36.00582812 -3.22129719 38.97899484 -3.8269043 41.95117188 C-4.60063172 45.7512263 -5.35606984 49.55464786 -6.10613728 53.35943413 C-6.68847876 56.3034377 -7.28007665 59.24552187 -7.87450218 62.18710709 C-8.15673393 63.58911922 -8.43619449 64.9916923 -8.71276283 66.39483261 C-9.1003354 68.35347631 -9.50167243 70.309381 -9.90356445 72.26513672 C-10.12784622 73.37557343 -10.35212799 74.48601013 -10.58320618 75.63009644 C-11.66592944 79.42580661 -13.04256657 82.52898088 -16.1875 85 C-19.85940674 86.01997409 -21.74577063 85.77488292 -25.4375 84.625 C-28.70428045 81.8576 -31.59178701 78.81916764 -34.4375 75.625 C-37.97182051 77.12790029 -40.20485331 79.17263433 -42.87890625 81.90625 C-43.70970703 82.74800781 -44.54050781 83.58976562 -45.39648438 84.45703125 C-46.25564453 85.33746094 -47.11480469 86.21789062 -48 87.125 C-49.70737446 88.86680248 -51.41691524 90.60648484 -53.12890625 92.34375 C-54.26114624 93.50293945 -54.26114624 93.50293945 -55.41625977 94.68554688 C-58.23927013 97.39432745 -59.87404888 98.56239432 -63.8125 99 C-68.0009385 98.56671326 -69.49990039 97.56259961 -72.4375 94.625 C-73.94639469 91.60721063 -73.93776276 90.00177363 -73.4375 86.625 C-68.69478403 79.87388395 -62.14131309 74.17436438 -56.30249023 68.35961914 C-54.73888893 66.80142737 -53.18076883 65.23789518 -51.62304688 63.67382812 C-50.62011252 62.67155383 -49.61686842 61.66958938 -48.61328125 60.66796875 C-47.71520752 59.77102295 -46.81713379 58.87407715 -45.8918457 57.94995117 C-40.38325766 52.73177909 -40.38325766 52.73177909 -35.5625 52.1875 C-31.16200018 52.32759082 -28.82478545 53.91517164 -25.4375 56.625 C-25.39431641 55.98248291 -25.35113281 55.33996582 -25.30664062 54.67797852 C-24.72282294 47.17337712 -23.46029328 39.92846866 -21.9375 32.5625 C-21.59912109 30.87350586 -21.59912109 30.87350586 -21.25390625 29.15039062 C-19.5784337 20.9068674 -19.5784337 20.9068674 -18.4375 18.625 C-23.36759838 19.60113286 -28.29718635 20.57979 -33.22631836 21.56079102 C-34.90326365 21.89416845 -36.58034636 22.22685538 -38.25756836 22.55883789 C-40.66817087 23.03610723 -43.07826845 23.51585664 -45.48828125 23.99609375 C-46.61342888 24.2180265 -46.61342888 24.2180265 -47.76130676 24.44444275 C-50.72543157 25.03713987 -53.56628938 25.66792979 -56.4375 26.625 C-55.2309375 27.8934375 -55.2309375 27.8934375 -54 29.1875 C-51.21843471 32.56511499 -50.35785431 35.1648413 -50.4375 39.625 C-53.83087145 46.5592808 -60.35846155 51.84368838 -66.140625 56.81640625 C-70.79638763 60.86938494 -75.11171925 65.22540046 -79.4375 69.625 C-84.40666827 74.67896636 -89.39959024 79.59286286 -94.80859375 84.17822266 C-96.59051997 85.69090478 -96.59051997 85.69090478 -98.4375 88 C-100.90434815 90.00431412 -103.16188191 90.74188116 -106.33288574 90.96022034 C-108.95632132 90.54236279 -109.91382999 89.74385056 -111.86132812 87.94897461 C-112.55846924 87.30652802 -113.25561035 86.66408142 -113.97387695 86.00216675 C-119.34865487 80.81600673 -124.63637292 75.54639664 -129.90625 70.25390625 C-131.19497072 68.96331715 -132.48391485 67.6729511 -133.77307129 66.38279724 C-137.14207828 63.00999816 -140.50806955 59.63420538 -143.87341309 56.25775146 C-147.31741623 52.80346255 -150.76430249 49.35205315 -154.2109375 45.90039062 C-160.95592839 39.14472087 -167.69773258 32.38588066 -174.4375 25.625 C-180.76560723 30.84527518 -186.5166943 36.57619831 -192.2980957 42.38793945 C-193.3793895 43.47115539 -194.4609134 44.55414169 -195.54264832 45.63691711 C-197.85921857 47.95663291 -200.17423 50.27788902 -202.48803139 52.60036659 C-206.14511408 56.27102473 -209.8060557 59.93781791 -213.46757507 63.60404968 C-221.23135656 71.37890147 -228.99088385 79.15799274 -236.75 86.9375 C-245.14468596 95.35421171 -253.5401052 103.77018435 -261.94039029 112.18130845 C-265.5824541 115.82836167 -269.22206445 119.47784072 -272.85983145 123.1291796 C-275.11672262 125.39350871 -277.37566445 127.65578331 -279.63517952 129.91749382 C-280.6850045 130.96919679 -281.73396174 132.02176674 -282.7820015 133.07524872 C-284.20839538 134.50881837 -285.63813808 135.93905369 -287.06806946 137.36909485 C-288.26843322 138.57278953 -288.26843322 138.57278953 -289.49304676 139.80080128 C-292.62533784 142.73937612 -295.09502865 143.0353274 -299.39453125 142.96484375 C-301.4375 142.625 -301.4375 142.625 -304.4375 140.5625 C-306.4375 137.625 -306.4375 137.625 -307.1875 134.3125 C-305.30061444 125.03531264 -294.3459948 117.39120151 -287.75073242 110.80883789 C-286.58033958 109.63708771 -285.41015908 108.46512541 -284.24017334 107.29296875 C-281.08378976 104.13205345 -277.92428429 100.97427649 -274.76404357 97.81721807 C-271.45230283 94.50801943 -268.14301425 91.19637 -264.83332825 87.88511658 C-259.28301568 82.33298924 -253.73060767 76.78296403 -248.17700195 71.23413086 C-241.75219898 64.81478528 -235.33102806 58.39182347 -228.91170043 51.96700293 C-223.39494066 46.44571146 -217.87624252 40.92636313 -212.35590631 35.40864748 C-209.06067264 32.1149742 -205.76612175 28.8206256 -202.4733181 25.52452278 C-199.3836085 22.43193312 -196.29147939 19.34178353 -193.19743347 16.25353241 C-192.06054136 15.11796648 -190.92450663 13.98154144 -189.78937721 12.84421349 C-188.24474642 11.29686607 -186.69709444 9.75260652 -185.14860535 8.2091217 C-184.28199374 7.34288713 -183.41538214 6.47665255 -182.52250957 5.58416843 C-180.05362641 3.26429517 -179.05238042 2.69487277 -175.6875 2.3125 C-169.08285533 2.94756199 -164.61584636 8.1611807 -160.15673828 12.67871094 C-159.56089432 13.27426285 -158.96505035 13.86981476 -158.35115051 14.4834137 C-156.39858808 16.43736054 -154.45319055 18.39827742 -152.5078125 20.359375 C-151.14919078 21.72173001 -149.79012449 23.08364178 -148.43063354 24.44512939 C-144.86538438 28.01799012 -141.30618416 31.59681755 -137.74822998 35.17694092 C-134.11184443 38.83383832 -130.46974292 42.48503314 -126.828125 46.13671875 C-119.69232572 53.29392423 -112.56290677 60.45744916 -105.4375 67.625 C-104.31096026 66.66430457 -103.18511065 65.70279982 -102.05955505 64.74095154 C-101.43252402 64.20560004 -100.80549299 63.67024855 -100.15946102 63.11867428 C-98.3544488 61.55295921 -96.64265008 59.93148088 -94.97265625 58.22265625 C-94.11957886 57.35713135 -94.11957886 57.35713135 -93.24926758 56.47412109 C-92.67200928 55.88453613 -92.09475098 55.29495117 -91.5 54.6875 C-87.14710183 50.27861043 -82.7838809 45.9889932 -77.98828125 42.0546875 C-76.20069975 40.40669045 -74.84280848 38.60347055 -73.4375 36.625 C-74.21996094 35.85414062 -75.00242187 35.08328125 -75.80859375 34.2890625 C-76.83086057 33.27617427 -77.85298881 32.26314616 -78.875 31.25 C-79.39126953 30.74210937 -79.90753906 30.23421875 -80.43945312 29.7109375 C-85.29754464 24.88459821 -85.29754464 24.88459821 -85.75 20.8125 C-85.35469596 16.78039882 -84.26046297 15.49305176 -81.4375 12.625 C-78.55102539 11.46606445 -78.55102539 11.46606445 -74.97265625 10.67578125 C-74.29292252 10.52168289 -73.61318878 10.36758453 -72.91285706 10.20881653 C-70.42583904 9.65597637 -67.93274139 9.13944434 -65.4375 8.625 C-63.9023172 8.30109283 -63.9023172 8.30109283 -62.33612061 7.97064209 C-55.13021141 6.45299185 -47.91369777 4.99501166 -40.68920898 3.56860352 C-36.84973901 2.80749243 -33.01383956 2.02982255 -29.17773438 1.25195312 C-26.72155618 0.76460578 -24.26518258 0.27824195 -21.80859375 -0.20703125 C-20.66998398 -0.44025589 -19.53137421 -0.67348053 -18.35826111 -0.91377258 C-5.90339526 -3.3301204 -5.90339526 -3.3301204 0 0 Z " fill="#000000" transform="translate(457.4375,67.375)"/>
<path d="M0 0 C11.34497206 9.63691959 19.71006947 22.58145419 21.90234375 37.5546875 C23.30312566 54.85898389 20.46611761 69.41401504 9.90234375 83.5546875 C9.46535156 84.18503906 9.02835937 84.81539063 8.578125 85.46484375 C0.52043736 96.08744097 -13.36248468 102.79413111 -26.09765625 105.5546875 C-45.39866655 107.06144237 -61.22702231 103.99180223 -76.78515625 91.8671875 C-87.81136356 81.70366634 -95.7720164 67.15656815 -96.3984375 52.00390625 C-96.62080053 34.02613542 -92.39761098 18.05096065 -79.5390625 4.80078125 C-57.19313887 -15.75746849 -24.49210079 -19.3342435 0 0 Z M-68.4296875 19.29296875 C-76.27276665 29.92796366 -79.04444391 40.45059742 -78.09765625 53.5546875 C-76.00246255 64.4843922 -70.21008725 73.82332014 -61.28515625 80.4921875 C-51.16192151 86.88257544 -40.95942141 89.18409933 -29.09765625 87.5546875 C-17.27420698 84.65338507 -8.22497451 78.48369798 -1.60546875 68.27734375 C3.89935479 58.33728674 5.78247496 47.70896441 3.20703125 36.5390625 C-0.52485931 25.3120304 -7.4838072 15.76371516 -17.9453125 9.98046875 C-35.48527325 1.74164466 -54.91033313 5.00291485 -68.4296875 19.29296875 Z " fill="#000000" transform="translate(293.09765625,219.4453125)"/>
<path d="M0 0 C10.95500875 9.236576 17.37932057 21.14578913 19.21484375 35.37109375 C20.05460699 49.96197998 16.10216475 63.55463591 6.56640625 74.6796875 C-4.14715939 85.82555491 -16.5187876 91.62302472 -31.97265625 92.30859375 C-46.14172273 91.8539713 -58.80477475 86.96875464 -69.09765625 77.18359375 C-80.01323802 65.48832757 -84.14081624 52.64946146 -83.875 36.8515625 C-83.02584365 21.6130659 -75.43947445 10.03739571 -64.4296875 -0.046875 C-45.74208081 -15.55924232 -18.94676484 -14.27267307 0 0 Z M-58.515625 19.13671875 C-64.1461576 27.08897714 -66.73719932 35.25782936 -65.66015625 44.99609375 C-63.91811592 54.56279856 -59.09359885 61.62161801 -51.56640625 67.6796875 C-44.26528981 72.72164701 -36.48597353 74.78913694 -27.67578125 73.58984375 C-17.38727034 71.39635411 -10.21898917 66.83463222 -4.1015625 58.26171875 C1.3507859 49.69163183 1.86164721 40.04041669 -0.28125 30.12109375 C-3.46685336 21.05982197 -9.44238205 14.83324639 -17.91015625 10.49609375 C-32.26482837 3.80220519 -47.93336697 6.92813475 -58.515625 19.13671875 Z " fill="#000000" transform="translate(160.66015625,253.00390625)"/>
<path d="M0 0 C14.35885818 -0.6309485 26.88065324 4.11359455 37.7109375 13.34765625 C47.46205675 22.53090666 53.64022357 34.15602493 54.44921875 47.62890625 C54.64904485 63.58169025 50.69798941 76.26965416 39.5625 87.9921875 C29.28997227 97.98754753 17.02536375 103.06760502 2.68359375 103.49609375 C-12.52084366 103.03780397 -25.50804848 96.83975571 -35.9765625 85.9296875 C-45.3726341 74.98809384 -49.21360222 61.9685023 -48.59765625 47.6015625 C-47.12564713 34.76394446 -42.51732856 24.70583449 -33.75390625 15.24609375 C-33.233125 14.68277344 -32.71234375 14.11945313 -32.17578125 13.5390625 C-23.57822488 5.31059315 -11.61560655 1.03799037 0 0 Z M-24.06640625 32.12109375 C-30.0179688 40.76464372 -30.75857287 48.77046876 -29.75390625 59.24609375 C-28.88612981 62.61914566 -27.60911127 65.31013067 -25.75390625 68.24609375 C-25.32980469 68.9421875 -24.90570313 69.63828125 -24.46875 70.35546875 C-18.97148871 78.50182809 -11.47562649 82.86106318 -1.9375 84.90234375 C8.35277554 86.01344099 17.18393743 83.05654978 25.17578125 76.71484375 C31.82719515 70.6629135 35.55807866 62.85555023 36.484375 53.95703125 C36.77673419 44.75541033 33.9764107 36.27788878 28.140625 29.09765625 C20.9705945 22.090245 12.85604714 18.45063528 2.93359375 17.87109375 C-7.91300572 18.17031029 -17.40899707 23.79933227 -24.06640625 32.12109375 Z " fill="#000000" transform="translate(380.75390625,241.75390625)"/>
<path d="M0 0 C2.4375 1.5625 2.4375 1.5625 4 4 C4.70297067 7.83438548 5.09556111 10.34079583 2.90766907 13.65431213 C-3.63030115 20.83459796 -10.52351331 27.66800944 -17.39453125 34.52734375 C-18.79235689 35.92584388 -20.19003413 37.32449235 -21.58757019 38.72328186 C-24.50166488 41.63884378 -27.41754314 44.55260674 -30.3347168 47.46508789 C-34.07857122 51.2032137 -37.81787543 54.94585408 -41.55588245 58.68982601 C-44.43388218 61.57143063 -47.31424859 64.45066005 -50.19534874 67.32916451 C-51.57603088 68.70917882 -52.95596851 70.08993841 -54.33515358 71.4714489 C-56.25464179 73.39346585 -58.17728721 75.31226672 -60.10083008 77.23022461 C-60.67173874 77.8031575 -61.2426474 78.37609039 -61.83085632 78.96638489 C-66.79398567 83.90274078 -66.79398567 83.90274078 -71.875 84.3125 C-74.86088441 84.25830972 -75.84588384 84.09879241 -78.4375 82.4375 C-80.54781557 79.1454077 -81 76.91300627 -81 73 C-78.1912546 68.06236644 -74.54491734 64.25901921 -70.55078125 60.29199219 C-69.91288666 59.65059296 -69.27499207 59.00919373 -68.61776733 58.34835815 C-66.52099326 56.24282587 -64.41704121 54.14464168 -62.3125 52.046875 C-60.8477706 50.58079759 -59.38333814 49.11442346 -57.91918945 47.64776611 C-54.85594263 44.58157631 -51.78912149 41.51901926 -48.71972656 38.45898438 C-44.78531998 34.53599192 -40.85998705 30.60406216 -36.93727112 26.669384 C-33.91775238 23.64264161 -30.89349051 20.62067473 -27.86776733 17.6001358 C-26.41821463 16.15191714 -24.97014582 14.70221165 -23.52359009 13.25099945 C-21.50359799 11.22593173 -19.47731164 9.20738009 -17.44921875 7.19042969 C-16.85273529 6.58989777 -16.25625183 5.98936584 -15.64169312 5.37063599 C-10.46561245 0.24714727 -7.54720231 -1.88680058 0 0 Z " fill="#000000" transform="translate(287,119)"/>
</svg>
