<?xml version="1.0" encoding="UTF-8"?>
<svg version="1.1" xmlns="http://www.w3.org/2000/svg" width="512" height="512">
<path d="M0 0 C1.17018677 0.54563599 1.17018677 0.54563599 2.36401367 1.10229492 C6.38849711 3.05254385 10.38866409 5.03593632 14.359375 7.09375 C15.15794922 7.49400391 15.95652344 7.89425781 16.77929688 8.30664062 C25.44874939 12.80740774 32.05007884 17.78998775 35.484375 27.15625 C36.63766405 34.99861552 34.98822542 40.15867143 31.796875 47.28125 C41.79966052 51.63753275 52.00506927 55.41358356 62.26196289 59.12207031 C64.17160454 59.8156519 66.07882499 60.51593382 67.98364258 61.22265625 C70.76637856 62.25472735 73.55585435 63.26618893 76.34765625 64.2734375 C77.19258133 64.5910202 78.03750641 64.90860291 78.90803528 65.23580933 C84.92598209 67.36975259 89.34807316 67.79239497 95.38891602 65.14550781 C96.18483154 64.67983398 96.98074707 64.21416016 97.80078125 63.734375 C98.69958008 63.22116699 99.59837891 62.70795898 100.52441406 62.17919922 C101.45995117 61.63537598 102.39548828 61.09155273 103.359375 60.53125 C117.5992656 52.51512079 131.6762911 46.89623204 148.234375 46.84375 C149.5646875 46.83794922 149.5646875 46.83794922 150.921875 46.83203125 C158.57362861 46.95833255 165.81433822 48.25384537 173.296875 49.78125 C193.66958333 53.88445534 213.98037609 54.44991264 232.796875 44.28125 C232.590625 43.146875 232.384375 42.0125 232.171875 40.84375 C231.32392716 33.78583119 232.74436821 27.8378585 237.02636719 22.07202148 C240.6894149 18.36704975 245.4736921 16.34855085 250.109375 14.09375 C251.11677734 13.58650391 252.12417969 13.07925781 253.16210938 12.55664062 C255.12949307 11.56846289 257.10139457 10.58921852 259.078125 9.61987305 C261.48630169 8.43416608 263.86995675 7.20987902 266.25390625 5.9765625 C273.26508866 2.62170785 278.86169013 2.90406777 286.2421875 5.00390625 C295.24504637 9.50533568 298.65674626 16.87976529 302.90966797 25.56689453 C303.58751039 26.9215604 304.26675338 28.27552622 304.94728088 29.62884521 C306.78166436 33.28682095 308.59611047 36.95435676 310.40680838 40.62410212 C312.30777571 44.46876895 314.22636544 48.30462418 316.14285278 52.14157104 C319.35588214 58.58050204 322.55703301 65.02521961 325.75 71.47412109 C329.84832737 79.75149051 333.96502672 88.01957476 338.08798027 96.28470039 C341.63566183 103.39666377 345.17618994 110.5121829 348.71489954 117.62861395 C349.47398533 119.15488126 350.2333179 120.68102586 350.99289465 122.20704889 C353.15664202 126.55412233 355.3165987 130.90303185 357.47012138 135.25518036 C358.12304054 136.57325421 358.77729456 137.89066778 359.43297386 139.20737076 C360.32710182 141.00360117 361.21580267 142.80253005 362.10421753 144.60159302 C362.85244184 146.11086207 362.85244184 146.11086207 363.61578178 147.65062141 C366.49095527 154.05444583 366.86847075 160.86927957 364.546875 167.53125 C361.39377988 175.72929731 355.06681551 178.60798113 347.609375 182.34375 C346.60583984 182.86001953 345.60230469 183.37628906 344.56835938 183.90820312 C341.65780374 185.39472634 338.7335979 186.84719666 335.796875 188.28125 C334.96148193 188.69165527 334.12608887 189.10206055 333.26538086 189.52490234 C326.36542128 192.77407051 319.95689005 193.74195778 312.46484375 191.62109375 C303.01973402 187.44935312 298.6805767 178.35699263 294.796875 169.28125 C294.796875 168.62125 294.796875 167.96125 294.796875 167.28125 C293.66000244 167.70196777 292.52312988 168.12268555 291.35180664 168.55615234 C260.84983084 179.84244388 230.32967901 191.07863784 199.796875 202.28125 C199.796875 205.25338688 200.26533183 206.79957087 201.296875 209.53125 C203.81294085 216.95963489 203.09864718 223.24162251 199.796875 230.28125 C196.34763972 235.75059816 191.92608229 239.20461919 185.796875 241.28125 C182.796875 241.53125 182.796875 241.53125 180.796875 241.28125 C181.10625 242.76625 181.10625 242.76625 181.421875 244.28125 C182.20823453 249.92252489 180.78364718 254.45389412 178.109375 259.40625 C174.11982163 264.36623528 169.95906356 268.33998251 163.796875 270.28125 C155.85069591 271.09770329 148.37151387 271.23995353 141.796875 266.28125 C139.96875717 264.69568343 138.41039802 263.09646339 136.796875 261.28125 C136.44496094 262.00570313 136.09304688 262.73015625 135.73046875 263.4765625 C131.76991807 271.23221005 128.07250716 275.76617226 120.609375 280.15625 C113.28701902 282.31694521 106.41594437 282.42647851 99.421875 279.15625 C95.15350744 276.75357213 92.03026442 273.9400854 88.796875 270.28125 C88.054375 270.6834375 88.054375 270.6834375 87.296875 271.09375 C78.99542551 275.03693851 71.67462026 276.98153582 62.609375 274.28125 C56.72403048 271.78624593 52.20524216 266.11262048 49.796875 260.28125 C49.3828125 257.921875 49.3828125 257.921875 49.171875 255.53125 C49.09710938 254.73203125 49.02234375 253.9328125 48.9453125 253.109375 C48.87183594 252.20445312 48.87183594 252.20445312 48.796875 251.28125 C48.24 251.26707031 47.683125 251.25289062 47.109375 251.23828125 C39.92634895 250.78934212 34.89627302 248.67711217 30 243.3125 C25.44525649 237.49977971 24.65414769 233.70307029 24.796875 226.28125 C23.641875 226.36375 22.486875 226.44625 21.296875 226.53125 C15.56433209 226.5008655 11.21318425 224.53718474 7.03125 220.6328125 C1.69113825 214.69647468 0.53019275 210.14837633 0.796875 202.28125 C0.1678125 202.26707031 -0.46125 202.25289062 -1.109375 202.23828125 C-9.1620085 201.78956523 -14.64536179 199.36255472 -20.078125 193.34375 C-23.14955202 188.91728164 -24.203125 185.65629284 -24.203125 180.28125 C-24.904375 180.013125 -25.605625 179.745 -26.328125 179.46875 C-29.203125 178.28125 -29.203125 178.28125 -32.328125 176.65625 C-35.12304424 175.06552225 -35.12304424 175.06552225 -38.203125 175.28125 C-38.925 176.18875 -39.646875 177.09625 -40.390625 178.03125 C-44.16118962 182.7249912 -48.14488806 184.71833276 -54.046875 185.8046875 C-63.51685174 186.48446306 -70.23038302 182.97644291 -78.20117188 178.41894531 C-80.16800983 177.3012057 -82.15575834 176.23577956 -84.15625 175.1796875 C-92.91071547 170.45324027 -99.06210341 166.20026555 -102.203125 156.28125 C-103.93240738 143.58578669 -95.97823705 132.88201951 -90.203125 122.09375 C-89.43638357 120.6563246 -88.6697835 119.21882379 -87.90332031 117.78125 C-82.2221741 107.13730994 -76.4645332 96.53620866 -70.66552734 85.95605469 C-68.01809995 81.11378181 -65.39255516 76.25966366 -62.765625 71.40625 C-62.22518555 70.40859619 -61.68474609 69.41094238 -61.12792969 68.38305664 C-58.39568911 63.33801266 -55.66853318 58.29030484 -52.94921875 53.23828125 C-47.466376 43.06256663 -41.92973426 32.91989367 -36.265625 22.84375 C-35.74613281 21.9148999 -35.22664063 20.9860498 -34.69140625 20.02905273 C-24.11487044 1.31737541 -24.11487044 1.31737541 -15.25390625 -1.29296875 C-9.88626946 -2.40739239 -5.00863313 -2.34248486 0 0 Z M-18.203125 13.28125 C-19.97996993 15.68911022 -21.3364825 18.24859415 -22.703125 20.90625 C-23.11836426 21.68258789 -23.53360352 22.45892578 -23.96142578 23.25878906 C-24.88302886 24.98407291 -25.79823196 26.71278621 -26.70800781 28.44433594 C-28.87303245 32.55236766 -31.08451177 36.63497546 -33.29125977 40.72070312 C-35.0958051 44.06400613 -36.89407 47.41062929 -38.69140625 50.7578125 C-42.34378346 57.55177285 -46.03468543 64.32423153 -49.73388672 71.09277344 C-53.40599506 77.81381496 -57.05844724 84.54529752 -60.703125 91.28125 C-64.38486733 98.08437436 -68.0708649 104.8850741 -71.77636719 111.67529297 C-72.76219148 113.48306846 -73.74594689 115.29197383 -74.72753906 117.10205078 C-77.30855696 121.85343096 -79.9328735 126.57395566 -82.62109375 131.265625 C-83.17853271 132.25159668 -83.73597168 133.23756836 -84.31030273 134.25341797 C-85.37536591 136.13536197 -86.45356121 138.00995784 -87.54711914 139.87548828 C-90.59530292 145.29983146 -92.27105558 149.04297259 -91.203125 155.28125 C-87.44683539 161.8652142 -80.79497276 164.66281052 -74.265625 168.09375 C-73.19376953 168.67833984 -72.12191406 169.26292969 -71.01757812 169.86523438 C-63.97042229 173.64073388 -63.97042229 173.64073388 -56.203125 175.28125 C-48.84703052 172.63305599 -45.84231371 166.98819913 -42.40234375 160.33984375 C-42.04935211 159.66853928 -41.69636047 158.9972348 -41.33267212 158.30558777 C-40.57512369 156.86350103 -39.8199855 155.42014604 -39.06704712 153.97564697 C-37.46546369 150.90310291 -35.85223512 147.8367234 -34.23985291 144.76983643 C-33.41652617 143.20339162 -32.59382597 141.63661735 -31.77174377 140.06951904 C-28.05903644 132.99376582 -24.29639208 125.94586348 -20.515625 118.90625 C-19.91081299 117.77920654 -19.30600098 116.65216309 -18.68286133 115.4909668 C-17.46833214 113.22790219 -16.25357119 110.96496194 -15.03857422 108.70214844 C-13.15461821 105.19084336 -11.27394287 101.67780104 -9.39453125 98.1640625 C-6.26887287 92.3205725 -3.13893537 86.47939237 -0.00537109 80.64013672 C1.18261769 78.42605522 2.36981106 76.21154673 3.55615234 73.99658203 C5.23702306 70.86038722 6.92199816 67.72644858 8.609375 64.59375 C9.13635986 63.61317627 9.66334473 62.63260254 10.20629883 61.62231445 C12.65218563 57.10468072 15.14868627 52.64155568 17.828125 48.2578125 C18.53424927 47.0989856 18.53424927 47.0989856 19.25463867 45.91674805 C20.12291686 44.5080062 21.00477308 43.10749038 21.90356445 41.71801758 C24.58202658 37.39187666 25.55617841 34.34134064 24.796875 29.28125 C22.16705681 24.57337489 19.68122668 22.19013353 14.96484375 19.6328125 C13.83626953 19.02050781 12.70769531 18.40820312 11.54492188 17.77734375 C10.66694946 17.31690674 10.66694946 17.31690674 9.77124023 16.84716797 C7.98784397 15.90807667 6.22362838 14.93862671 4.45898438 13.96484375 C-3.78932971 9.56136133 -10.3348527 6.42893594 -18.203125 13.28125 Z M263.234375 19.46875 C262.21923828 19.96439453 261.20410156 20.46003906 260.15820312 20.97070312 C250.95766811 25.20798046 250.95766811 25.20798046 243.859375 32.09375 C242.07286905 37.45326786 243.41266569 41.77900576 245.75537109 46.75 C246.60023419 48.43220286 247.45586826 50.10902506 248.3203125 51.78125 C248.78112213 52.69342285 249.24193176 53.6055957 249.71670532 54.54541016 C251.1923463 57.46224859 252.68142882 60.37195324 254.171875 63.28125 C256.10043121 67.07085321 258.02350585 70.86322015 259.9453125 74.65625 C260.43423981 75.61951202 260.92316711 76.58277405 261.4269104 77.57522583 C264.69631848 84.03815644 267.86414582 90.5424286 270.96875 97.0859375 C277.63184725 111.11862534 284.5268884 125.03477181 291.45117188 138.93994141 C292.94793096 141.94699221 294.4387391 144.95688883 295.92480469 147.96923828 C297.75058094 151.67010258 299.58612765 155.36596123 301.4288063 159.05843735 C302.12031774 160.44813457 302.80844962 161.83951925 303.49297714 163.23266983 C304.44411129 165.16662069 305.40772604 167.09385588 306.37451172 169.02001953 C306.91647186 170.11202667 307.45843201 171.20403381 308.01681519 172.32913208 C310.64605567 176.68956305 313.4054022 179.59915549 317.984375 181.84375 C323.55260905 182.48272768 326.84603211 180.73869018 331.796875 178.28125 C332.53711914 177.92385742 333.27736328 177.56646484 334.04003906 177.19824219 C336.5959421 175.95697587 339.135296 174.68650901 341.671875 173.40625 C342.92145996 172.79088379 342.92145996 172.79088379 344.19628906 172.16308594 C349.10609364 169.61349598 352.40435291 167.4977326 354.796875 162.28125 C355.47856574 155.95526806 353.60303626 151.9000333 350.81054688 146.42382812 C350.38646545 145.564673 349.96238403 144.70551788 349.52545166 143.82032776 C348.11847896 140.97773425 346.69215721 138.14532143 345.265625 135.3125 C344.26600121 133.30260337 343.26769317 131.29205186 342.27062988 129.28088379 C340.17889158 125.06640854 338.07958521 120.85582778 335.97460938 116.64794922 C332.91299714 110.52274063 329.88177743 104.3829135 326.859375 98.23828125 C322.49280603 89.3643508 318.10633067 80.5005818 313.70137024 71.64564514 C311.21524629 66.64724392 308.73501596 61.64608693 306.26708984 56.63867188 C303.80962849 51.65284742 301.33860418 46.67397281 298.85768127 41.69978333 C297.93111321 39.83630938 297.00932049 37.97045233 296.09263611 36.10209656 C294.82803548 33.52683829 293.54615869 30.96091034 292.25976562 28.39648438 C291.89511703 27.64359131 291.53046844 26.89069824 291.1547699 26.11499023 C288.21464782 20.32638647 284.94994841 16.41823186 278.64453125 14.14453125 C272.80520523 14.35201999 268.38015997 16.84830246 263.234375 19.46875 Z M24.796875 58.28125 C17.30512794 71.94728111 9.90044426 85.65820188 2.54983521 99.40060425 C2.07463943 100.28898483 2.07463943 100.28898483 1.58984375 101.1953125 C1.2734494 101.78684113 0.95705505 102.37836975 0.631073 102.98782349 C-2.65698487 109.13314106 -5.95997788 115.27038094 -9.265625 121.40625 C-10.11278076 122.97898682 -10.11278076 122.97898682 -10.97705078 124.58349609 C-13.6940503 129.62669913 -16.41224706 134.66925557 -19.1313324 139.71133423 C-20.10915538 141.52473495 -21.08672645 143.33827122 -22.06420898 145.15185547 C-23.29626746 147.43762093 -24.52882839 149.72311564 -25.76196289 152.00830078 C-26.31489014 153.0342334 -26.86781738 154.06016602 -27.4375 155.1171875 C-27.92444336 156.02001465 -28.41138672 156.9228418 -28.91308594 157.85302734 C-30.04347737 159.98074748 -31.13753561 162.12050646 -32.203125 164.28125 C-30.74774932 165.11973804 -29.28872127 165.95188934 -27.828125 166.78125 C-27.01601562 167.2453125 -26.20390625 167.709375 -25.3671875 168.1875 C-23.30975626 169.43160859 -23.30975626 169.43160859 -21.203125 169.28125 C-20.30595619 167.90099029 -19.41065009 166.51949292 -18.5234375 165.1328125 C-14.22160797 159.10006932 -8.51822908 153.24174691 -1.203125 151.28125 C6.44391992 150.36015049 13.5090069 150.45706616 19.796875 155.28125 C23.77980801 159.26418301 25.83091738 163.10767732 27.796875 168.28125 C28.910625 167.930625 30.024375 167.58 31.171875 167.21875 C37.34161026 165.68725543 43.07851693 166.3402799 49.046875 168.40625 C55.03415022 172.48848311 58.32802262 177.5604852 60.796875 184.28125 C61.621875 184.11625 62.446875 183.95125 63.296875 183.78125 C71.96688438 182.54267723 78.08598322 183.3904755 85.546875 187.96875 C90.36869131 192.92450565 92.23160242 198.49797902 92.796875 205.28125 C93.35375 205.24644531 93.910625 205.21164062 94.484375 205.17578125 C101.59302676 204.92361624 106.91270077 205.9870205 112.546875 210.46875 C116.35542626 215.22943908 118.91478879 219.39848781 118.859375 225.59375 C119.33995134 232.5500925 125.90334796 236.96730624 130.796875 241.28125 C131.49683594 241.90902344 132.19679688 242.53679687 132.91796875 243.18359375 C134.16515727 244.28557945 135.42299786 245.37563169 136.69140625 246.453125 C138.34389234 247.88793667 139.95885275 249.3659817 141.55859375 250.859375 C142.04263672 251.31111084 142.52667969 251.76284668 143.02539062 252.22827148 C144.41554865 253.52933471 145.79973258 254.83677243 147.18359375 256.14453125 C151.12294075 259.3654921 153.64464262 260.2995394 158.734375 260.21875 C163.3400969 259.47870017 165.59560906 257.63495717 168.796875 254.28125 C171.24463423 250.44997469 171.03358694 246.83959231 170.37890625 242.47265625 C168.35301162 234.84495901 159.6196205 229.91157155 153.796875 225.28125 C152.08598881 223.88854691 150.37765739 222.49269958 148.671875 221.09375 C147.77210938 220.35769531 146.87234375 219.62164062 145.9453125 218.86328125 C141.31128583 215.06641808 136.69024101 211.25375257 132.06713867 207.44360352 C128.04652266 204.13084559 124.02026597 200.82537809 119.984375 197.53125 C119.14648438 196.83902344 118.30859375 196.14679688 117.4453125 195.43359375 C115.47045273 193.82865609 113.48151223 192.26776773 111.4609375 190.72265625 C110.34370667 189.84640942 109.22651831 188.97010841 108.109375 188.09375 C107.09488281 187.31644531 106.08039063 186.53914062 105.03515625 185.73828125 C102.796875 183.28125 102.796875 183.28125 102.40234375 180.04296875 C102.796875 177.28125 102.796875 177.28125 103.796875 176.28125 C107.43609558 175.87112386 109.27416833 175.94975836 112.40234375 177.93359375 C113.25441406 178.68769531 114.10648438 179.44179688 114.984375 180.21875 C116.42490234 181.46398437 116.42490234 181.46398437 117.89453125 182.734375 C118.85230469 183.57484375 119.81007812 184.4153125 120.796875 185.28125 C122.49905825 186.68457664 124.20739921 188.08046824 125.921875 189.46875 C130.72225133 193.39570543 135.51036336 197.33741192 140.296875 201.28125 C149.45180602 208.82207473 158.61407468 216.35124697 167.859375 223.78125 C168.51566895 224.31057129 169.17196289 224.83989258 169.84814453 225.38525391 C174.29459499 228.9487213 176.83433615 230.79477473 182.69140625 230.7734375 C186.65843107 229.84608105 188.65879576 226.55125354 190.796875 223.28125 C192.38012257 220.11475487 192.44061736 216.70666806 191.796875 213.28125 C189.03123662 208.24239179 185.58208015 205.14328363 181.109375 201.71875 C180.45364502 201.20554199 179.79791504 200.69233398 179.12231445 200.16357422 C177.02198879 198.52527556 174.91112476 196.90152973 172.796875 195.28125 C171.77158691 194.49306885 171.77158691 194.49306885 170.72558594 193.68896484 C167.22707139 191.00168803 163.72109075 188.32439414 160.2109375 185.65234375 C130.59196807 163.07634307 130.59196807 163.07634307 126.796875 159.28125 C126.546875 156.84375 126.546875 156.84375 126.796875 154.28125 C129.796875 152.28125 129.796875 152.28125 132.109375 152.37890625 C135.543493 153.53193133 138.02682298 155.46279799 140.796875 157.71875 C141.95293744 158.63435145 143.10919284 159.54970931 144.265625 160.46484375 C144.85214844 160.93390137 145.43867188 161.40295898 146.04296875 161.88623047 C148.76732585 164.05312585 151.5325296 166.1657824 154.296875 168.28125 C155.37786513 169.11163955 156.4585935 169.94236999 157.5390625 170.7734375 C158.3429541 171.3917041 158.3429541 171.3917041 159.16308594 172.02246094 C160.81641757 173.29630701 162.46708722 174.57353416 164.1171875 175.8515625 C178.311168 188.56502681 178.311168 188.56502681 195.796875 192.28125 C199.50597597 190.49538657 201.33708801 188.91901905 203.734375 185.59375 C205.11124853 181.30114428 205.16999917 177.59571119 203.796875 173.28125 C201.27448838 169.65461857 198.44294641 167.00135532 194.984375 164.28125 C190.39740301 160.60313283 185.91700492 156.83136418 181.484375 152.96875 C180.20182382 151.85286355 178.91927173 150.73697814 177.63671875 149.62109375 C176.68128174 148.78940674 176.68128174 148.78940674 175.70654297 147.94091797 C168.56296259 141.73252377 161.40041628 135.55301028 154.046875 129.59375 C150.46713379 126.69210954 147.01198392 123.70115541 143.609375 120.59375 C139.13855908 116.55512997 139.13855908 116.55512997 134.546875 112.65625 C133.96421875 112.16898438 133.3815625 111.68171875 132.78125 111.1796875 C127.64936631 108.85619685 120.76055898 112.58624124 115.77734375 114.40625 C114.01506647 115.03671699 112.25269366 115.66691698 110.49023438 116.296875 C107.73747185 117.28727135 104.98588356 118.28070216 102.23608398 119.27929688 C99.56534856 120.24690257 96.8904545 121.20222297 94.21484375 122.15625 C93.40516647 122.45418457 92.5954892 122.75211914 91.76127625 123.05908203 C82.6133166 126.30436908 74.71299115 127.35365104 65.6953125 123.34765625 C60.06442134 120.30022639 56.66690248 116.44286129 54.796875 110.28125 C53.92183616 103.07185924 53.46812698 95.30429942 57.41015625 88.9140625 C62.29176218 83.16614341 69.21158018 79.72633479 75.796875 76.28125 C73.24878461 74.58252307 71.30703242 73.62197593 68.48071289 72.58544922 C67.1790493 72.10517776 67.1790493 72.10517776 65.85108948 71.61520386 C64.91667526 71.27554596 63.98226105 70.93588806 63.01953125 70.5859375 C61.57518959 70.05747726 61.57518959 70.05747726 60.10166931 69.51834106 C58.06568366 68.77497452 56.02892402 68.03372493 53.99145508 67.29443359 C50.87231595 66.16095268 47.75738633 65.01641392 44.64257812 63.87109375 C42.66430947 63.15036343 40.68580161 62.43028925 38.70703125 61.7109375 C37.77464127 61.36723114 36.84225128 61.02352478 35.88160706 60.66940308 C34.57521523 60.1985881 34.57521523 60.1985881 33.24243164 59.71826172 C32.47870743 59.44005585 31.71498322 59.16184998 30.92811584 58.87521362 C28.52342503 58.10227469 28.52342503 58.10227469 24.796875 58.28125 Z M230.109375 57.59375 C211.58503798 64.798796 193.70556301 64.6758098 174.484375 60.78125 C165.96822925 59.06535033 157.74794009 57.76806092 149.046875 57.71875 C148.22791748 57.70457031 147.40895996 57.69039063 146.56518555 57.67578125 C133.10732379 57.89121475 121.36142318 62.96902207 109.734375 69.28125 C108.47960381 69.94896386 107.22422199 70.61553136 105.96826172 71.28100586 C103.44463114 72.62194988 100.92645124 73.97236185 98.41259766 75.33154297 C95.04596779 77.15115803 91.66323118 78.93909839 88.27734375 80.72265625 C86.32479306 81.7616543 84.3729258 82.80193815 82.421875 83.84375 C81.54394287 84.30716797 80.66601074 84.77058594 79.76147461 85.24804688 C73.88852352 88.43376698 67.93666829 91.89324396 64.296875 97.65625 C63.45442712 102.07910138 63.56868194 106.12361354 65.80859375 110.05859375 C68.3718784 113.36579697 70.70100886 115.4434592 74.796875 116.28125 C81.75800688 116.14678534 87.82584265 114.09789542 94.2734375 111.6484375 C96.2629212 110.91769743 98.25250762 110.18723698 100.2421875 109.45703125 C103.34251919 108.30560607 106.44084283 107.14912963 109.53710938 105.98681641 C112.54860998 104.86059899 115.56667321 103.75363964 118.5859375 102.6484375 C119.50589508 102.2964328 120.42585266 101.9444281 121.37368774 101.58175659 C126.57100621 99.68989495 130.28023204 98.74614566 135.796875 100.28125 C138.71875 102.46875 138.71875 102.46875 141.546875 105.28125 C142.59531417 106.29669461 143.64614027 107.30967994 144.69921875 108.3203125 C145.21983887 108.8246582 145.74045898 109.32900391 146.27685547 109.84863281 C148.45967002 111.90593378 150.76990747 113.78049213 153.109375 115.65625 C157.54747289 119.23227132 161.87508015 122.91319395 166.171875 126.65625 C170.87415702 130.75146053 175.59219735 134.8242073 180.359375 138.84375 C186.65810251 144.15875564 192.93823914 149.49395252 199.171875 154.88525391 C200.7028005 156.20043299 202.24937118 157.4973373 203.796875 158.79296875 C210.8963403 164.87085402 213.62414121 169.30029286 214.484375 178.71875 C214.6003587 180.572215 214.70854222 182.42626158 214.796875 184.28125 C218.73649198 183.6029841 222.31706225 182.46213911 226.06835938 181.08813477 C226.67553299 180.8668692 227.2827066 180.64560364 227.90827942 180.41763306 C229.90368991 179.68946352 231.89715841 178.95612897 233.890625 178.22265625 C235.28386777 177.7129145 236.67722076 177.20347392 238.07067871 176.69432068 C240.9865656 175.62807347 243.90158414 174.55949842 246.81591797 173.48901367 C250.54375655 172.11971566 254.27296651 170.754204 258.00273895 169.39018345 C261.56996099 168.08550571 265.1366059 166.77925414 268.703125 165.47265625 C269.37981735 165.22482454 270.0565097 164.97699284 270.75370789 164.72165108 C272.6779129 164.01653078 274.60171905 163.31033389 276.52539062 162.60375977 C277.61839478 162.20262466 278.71139893 161.80148956 279.83752441 161.38819885 C282.50708196 160.38964746 285.15569667 159.35229301 287.796875 158.28125 C286.44097135 153.93672402 284.7668537 149.93516516 282.76953125 145.84765625 C282.46899338 145.22994858 282.16845551 144.61224091 281.85881042 143.97581482 C280.86245856 141.93008556 279.86089634 139.88695276 278.859375 137.84375 C278.14970793 136.38884604 277.4404062 134.93376383 276.73144531 133.47851562 C275.21704464 130.37155898 273.70046962 127.2656776 272.18212891 124.16064453 C268.53585994 116.70360339 264.90040424 109.24128954 261.26428223 101.77929688 C260.05250512 99.29280266 258.84022438 96.8065544 257.62792969 94.3203125 C251.29740566 81.33278827 245.02098358 68.32015918 238.796875 55.28125 C235.29407382 55.28125 233.32815608 56.22465742 230.109375 57.59375 Z M-4.94140625 165.69140625 C-6.21564453 167.00431641 -6.21564453 167.00431641 -7.515625 168.34375 C-8.37800781 169.22160156 -9.24039063 170.09945312 -10.12890625 171.00390625 C-13.23982951 174.41947736 -13.49796948 176.61833489 -13.4140625 181.25 C-13.097601 184.29740702 -12.18959901 185.96369699 -10.203125 188.28125 C-6.2917436 191.01012074 -3.05390039 191.88052449 1.71484375 191.05078125 C5.88678776 189.5088057 8.74974413 186.41934 11.796875 183.28125 C12.32925781 182.79269531 12.86164063 182.30414063 13.41015625 181.80078125 C16.19754961 178.99768427 17.17785676 176.62132652 17.421875 172.78125 C17.12700824 167.78536464 15.45826024 165.61717877 11.796875 162.28125 C5.10431477 158.77562322 0.5193043 160.88504618 -4.94140625 165.69140625 Z M21.609375 187.09375 C21.00673828 187.68478516 20.40410156 188.27582031 19.78320312 188.88476562 C15.65003294 193.04515756 11.37517681 197.52553711 10.44921875 203.5390625 C11.2147742 208.55187765 12.71541011 210.9961685 16.796875 214.28125 C20.4469516 216.1062883 23.84064591 216.19933675 27.796875 215.28125 C31.59061234 212.7320509 34.62299795 209.5518916 37.796875 206.28125 C38.704375 205.43046875 39.611875 204.5796875 40.546875 203.703125 C47.28833406 197.47652901 47.28833406 197.47652901 50.796875 189.28125 C50.55599564 184.73035061 49.58102822 182.04579939 46.296875 178.84375 C36.2195068 172.54539487 28.67567652 179.88874245 21.609375 187.09375 Z M48.484375 209.34375 C47.59169922 210.22869141 46.69902344 211.11363281 45.77929688 212.02539062 C44.92271484 212.88455078 44.06613281 213.74371094 43.18359375 214.62890625 C42.41233154 215.40242432 41.64106934 216.17594238 40.84643555 216.97290039 C36.98053007 221.32693687 35.25527634 224.59525474 35.515625 230.35546875 C35.94844583 233.31908918 36.85159609 235.01175794 38.796875 237.28125 C42.18944012 239.6481559 44.41325972 240.25567565 48.546875 240.53125 C54.00813469 239.50662342 57.35686326 235.75017324 61.15234375 231.92724609 C63.11400186 229.96384066 65.11189804 228.04022338 67.109375 226.11328125 C68.65247154 224.60823546 70.19413002 223.10171391 71.734375 221.59375 C72.48066162 220.86929688 73.22694824 220.14484375 73.99584961 219.3984375 C77.76967522 215.64569952 80.91799836 212.37263729 82.796875 207.28125 C82.796875 202.96772747 82.05982503 200.24765337 79.421875 196.90625 C76.38258514 193.86696014 74.80412749 193.41950034 70.609375 192.84375 C61.53052437 193.88558532 54.60804743 203.16584578 48.484375 209.34375 Z M75.53149414 231.23095703 C73.97859133 232.78704553 72.41273318 234.32924767 70.84570312 235.87109375 C69.84294046 236.87158511 68.8409592 237.8728604 67.83984375 238.875 C66.94289795 239.76896484 66.04595215 240.66292969 65.12182617 241.58398438 C62.32284749 244.83118762 60.048597 248.10621462 59.546875 252.44140625 C60.21576892 257.53127095 61.66325454 259.95418963 65.796875 263.28125 C69.08007553 264.92285027 72.26025233 264.91733606 75.796875 264.28125 C82.61760773 260.55685702 88.13221033 254.31834828 93.58007812 248.86865234 C95.04798089 247.40514743 96.53120324 245.95844247 98.015625 244.51171875 C103.07235144 239.51712655 107.33582115 235.03621461 109.796875 228.28125 C109.59626634 223.66674432 108.63321025 221.09667686 105.296875 217.84375 C92.87819685 210.08207616 83.81173312 222.91511262 75.53149414 231.23095703 Z M112.93920898 243.02539062 C112.14844971 243.82138672 111.35769043 244.61738281 110.54296875 245.4375 C109.68896484 246.29472656 108.83496094 247.15195312 107.95507812 248.03515625 C107.05724609 248.94136719 106.15941406 249.84757813 105.234375 250.78125 C103.88182617 252.14056641 103.88182617 252.14056641 102.50195312 253.52734375 C100.26469159 255.77644265 98.02978753 258.02783467 95.796875 260.28125 C96.75856765 261.40801912 97.72093691 262.53421077 98.68359375 263.66015625 C99.4873645 264.60097046 99.4873645 264.60097046 100.30737305 265.56079102 C103.41500871 269.17950823 103.41500871 269.17950823 107.8671875 270.55859375 C112.66816495 270.75665388 115.9906106 270.453137 119.796875 267.28125 C122.87733594 264.20078906 124.57547235 262.04232161 125.796875 257.84375 C125.796875 252.77098087 124.66537651 249.20048006 121.0703125 245.5078125 C117.18281914 241.32488768 117.18281914 241.32488768 112.93920898 243.02539062 Z " fill="#000000" transform="translate(124.203125,222.71875)"/>
<path d="M0 0 C1.08978149 -0.0066568 2.17956299 -0.0133136 3.30236816 -0.02017212 C5.59479099 -0.03022661 7.88724265 -0.03499139 10.1796875 -0.03466797 C13.62030455 -0.03901706 17.05961092 -0.07535027 20.5 -0.11328125 C54.5416317 -0.28750953 84.17161236 9.3717374 109.171875 33.29296875 C129.65100281 53.67197044 142.10725932 82.36692478 142.53662109 111.26391602 C142.47876527 144.35481818 131.74900345 172.72485806 108.40625 196.5234375 C82.57132183 222.10497998 49.92050423 229.58090034 14.53125 229.5234375 C13.78335205 229.52250092 13.0354541 229.52156433 12.26489258 229.52059937 C-24.16672521 229.42188583 -54.08283863 221.18583912 -80.84375 195.3359375 C-81.97490234 194.28212891 -81.97490234 194.28212891 -83.12890625 193.20703125 C-102.25588012 174.96454172 -113.07165308 147.22110945 -114.19140625 121.1015625 C-114.85608684 92.19124726 -107.70653351 63.23592957 -87.84375 41.3359375 C-87.15925781 40.52253906 -86.47476563 39.70914063 -85.76953125 38.87109375 C-71.59070118 22.35033843 -53.06703362 10.82399762 -32.28125 4.5859375 C-31.62157227 4.38718018 -30.96189453 4.18842285 -30.28222656 3.98364258 C-20.30559134 1.14931599 -10.34790216 0.02274061 0 0 Z M-73.84375 42.3359375 C-74.71902344 43.19960938 -75.59429687 44.06328125 -76.49609375 44.953125 C-86.99142268 55.85274241 -94.21415345 68.97597843 -98.84375 83.3359375 C-99.05402832 83.98804199 -99.26430664 84.64014648 -99.48095703 85.31201172 C-107.35439566 111.10173111 -103.8302445 138.57073172 -91.84375 162.3359375 C-91.32039063 163.38265625 -90.79703125 164.429375 -90.2578125 165.5078125 C-77.03334152 189.8924468 -54.21361532 206.00440833 -28.34375 214.5859375 C-1.88393136 222.25545015 26.53232176 218.76270478 50.66357422 205.62353516 C75.69648477 191.34248642 93.46073791 167.86881798 101.19140625 140.203125 C107.85790853 113.48313609 103.93610689 85.30038291 89.96875 61.5234375 C75.47020692 38.11882516 54.2527967 22.57045131 28.15625 14.3359375 C27.11082031 13.995625 26.06539062 13.6553125 24.98828125 13.3046875 C-10.88416527 3.6792857 -48.31486145 16.84255505 -73.84375 42.3359375 Z M60.15625 16.3359375 C66.4083446 23.20801469 66.4083446 23.20801469 74.67578125 26.71875 C76.86851178 26.71184376 78.98152053 26.60777868 81.15625 26.3359375 C77.3991921 23.04403915 73.55503665 20.96454186 68.96875 19.0859375 C68.34033203 18.8178125 67.71191406 18.5496875 67.06445312 18.2734375 C63.72481815 16.811534 63.72481815 16.811534 60.15625 16.3359375 Z M85.15625 37.3359375 C85.960625 38.3671875 86.765 39.3984375 87.59375 40.4609375 C89.72503545 43.19411374 91.48403279 45.89471594 93.03125 48.984375 C96.25045558 55.75013113 96.25045558 55.75013113 102.02832031 59.96386719 C106.47034218 60.55231293 110.74335846 60.06851238 115.15625 59.3359375 C110.84055663 52.32928238 105.81089409 46.30293335 100.15625 40.3359375 C99.69992187 39.74941406 99.24359375 39.16289063 98.7734375 38.55859375 C96.26376548 36.66118471 94.0498473 37.04904726 90.96875 37.1484375 C89.33873047 37.18904297 89.33873047 37.18904297 87.67578125 37.23046875 C86.84433594 37.26527344 86.01289063 37.30007812 85.15625 37.3359375 Z M106.15625 70.3359375 C106.589375 71.7384375 107.0225 73.1409375 107.46875 74.5859375 C109.23481071 80.45598691 110.70227027 86.38154432 112.15625 92.3359375 C117.76625 92.3359375 123.37625 92.3359375 129.15625 92.3359375 C127.36651842 84.23504718 125.11962772 77.61998304 121.15625 70.3359375 C116.20625 70.3359375 111.25625 70.3359375 106.15625 70.3359375 Z M114.15625 103.3359375 C114.15625 110.9259375 114.15625 118.5159375 114.15625 126.3359375 C119.76625 126.3359375 125.37625 126.3359375 131.15625 126.3359375 C131.15625 118.7459375 131.15625 111.1559375 131.15625 103.3359375 C125.54625 103.3359375 119.93625 103.3359375 114.15625 103.3359375 Z M112.15625 136.3359375 C109.0735882 147.8146369 109.0735882 147.8146369 106.15625 159.3359375 C111.10625 159.3359375 116.05625 159.3359375 121.15625 159.3359375 C124.83674947 152.6321706 129.15625 144.11419236 129.15625 136.3359375 C123.54625 136.3359375 117.93625 136.3359375 112.15625 136.3359375 Z M98.0234375 171.515625 C96.93882411 173.57039509 95.91708088 175.65904966 94.9453125 177.76953125 C87.9198594 191.7744192 73.93039503 202.88325856 61.15625 211.3359375 C63.08002112 212.58887706 63.08002112 212.58887706 64.93701172 211.76611328 C67.30940735 210.67883267 69.6768753 209.58689384 72.03125 208.4609375 C73.32083618 207.84508789 73.32083618 207.84508789 74.63647461 207.21679688 C81.86983455 203.66018562 87.99930664 199.56888193 94.15625 194.3359375 C95.01347656 193.63984375 95.87070312 192.94375 96.75390625 192.2265625 C103.66549209 186.37254544 112.22316046 178.13520613 115.15625 169.3359375 C105.90649244 167.78032629 105.90649244 167.78032629 98.0234375 171.515625 Z " fill="#000000" transform="translate(241.84375,7.6640625)"/>
<path d="M0 0 C22.53550652 -0.61990876 42.94630619 7.60955792 59.484375 22.625 C65.6997839 28.57790526 70.54188704 34.60844804 74.7265625 42.12109375 C75.18675781 42.9203125 75.64695312 43.71953125 76.12109375 44.54296875 C85.67699391 62.21127961 87.36323348 84.06398811 82.8203125 103.4765625 C76.30132919 125.19874617 63.02278747 143.2867739 42.91796875 154.23046875 C23.11066668 164.6607209 0.40766844 167.77668906 -21.2734375 161.12109375 C-31.88263561 157.65867763 -40.41158041 152.91311848 -49.2734375 146.12109375 C-49.93730469 145.6415625 -50.60117188 145.16203125 -51.28515625 144.66796875 C-67.17582636 132.37029398 -76.07774154 111.19485924 -79.0234375 91.87109375 C-80.69599934 66.78266608 -73.89063892 45.1216388 -57.2734375 26.12109375 C-44.06648834 11.22558488 -24.20684075 1.72347671 -4.359375 0.2109375 C-2.90589745 0.14833453 -1.45276574 0.07738099 0 0 Z M-49.2734375 34.12109375 C-49.93730469 34.75402344 -50.60117188 35.38695313 -51.28515625 36.0390625 C-62.79141077 47.75217103 -68.54921042 66.10456205 -68.7109375 82.24609375 C-68.23026432 98.62102685 -63.46793387 113.26447181 -53.2734375 126.12109375 C-52.61601562 126.95511719 -51.95859375 127.78914063 -51.28125 128.6484375 C-40.07563878 141.96792776 -23.28503881 151.82245734 -5.73632812 153.34057617 C15.23248187 154.27014145 34.31743859 150.21354007 50.1640625 135.74609375 C64.65885077 121.84433904 73.56015874 105.3887068 74.07641602 85.04956055 C74.25306099 64.47813909 68.07091201 47.17774829 53.7265625 32.12109375 C40.17633584 18.45158692 22.31843772 11.12510217 3.1015625 10.74609375 C-17.44595814 10.83092074 -35.18568662 19.51397878 -49.2734375 34.12109375 Z " fill="#000000" transform="translate(239.2734375,39.87890625)"/>
<path d="M0 0 C3.0625 0.375 3.0625 0.375 4.875 2 C6.0625 4.375 6.0625 4.375 6.25 7.375 C6.70469447 10.40222416 6.70469447 10.40222416 8.65234375 11.3671875 C9.32394531 11.65851563 9.99554688 11.94984375 10.6875 12.25 C16.53609946 14.80154339 20.35268033 18.95536067 23.19921875 24.6484375 C25.06348397 29.59169279 25.34209703 33.25661188 24.0625 38.375 C23.0625 39.375 23.0625 39.375 19.625 39.5625 C16.0625 39.375 16.0625 39.375 14.0625 37.375 C13.60546875 35.38671875 13.60546875 35.38671875 13.25 33.0625 C12.31194053 28.50411727 10.83105204 26.26714459 7.0625 23.375 C2.85346232 20.93818871 -0.27713836 21.14858904 -4.9375 22.375 C-8.7472002 24.74707749 -11.10514921 26.86390094 -12.5 31.125 C-13.39086498 35.90658144 -12.34470655 40.18008859 -9.9375 44.375 C-7.50187999 45.98506032 -7.50187999 45.98506032 -4.9375 46.375 C-4.2775 46.705 -3.6175 47.035 -2.9375 47.375 C-1.06457402 47.64009106 0.81088161 47.88745337 2.6875 48.125 C10.11861209 49.33533682 14.5461158 51.91453544 19.875 57.125 C23.86953101 63.05973178 25.83347148 69.17926616 25.0625 76.375 C23.49529695 83.68861422 20.36097105 89.29032226 14.22265625 93.6953125 C11.35866048 95.42703087 9.44548331 96.375 6.0625 96.375 C6.02511719 97.00148438 5.98773438 97.62796875 5.94921875 98.2734375 C5.88347656 99.09070313 5.81773437 99.90796875 5.75 100.75 C5.69199219 101.56210938 5.63398438 102.37421875 5.57421875 103.2109375 C5.0625 105.375 5.0625 105.375 2.0625 107.375 C-1.25990324 107.0508631 -2.54526303 106.76723697 -4.9375 104.375 C-5.20741906 101.68660615 -5.02487357 99.08358064 -4.9375 96.375 C-6.2059375 96.2821875 -6.2059375 96.2821875 -7.5 96.1875 C-13.64575225 94.73486765 -17.43371941 91.53725608 -20.8125 86.25 C-23.15799187 82.2580039 -24.10557512 78.94808287 -24.1875 74.3125 C-24.21328125 73.43464844 -24.2390625 72.55679688 -24.265625 71.65234375 C-24.15734375 70.90082031 -24.0490625 70.14929688 -23.9375 69.375 C-20.71376323 67.22584215 -19.67046326 66.99213197 -15.9375 67.375 C-13.60556424 69.70693576 -13.39667725 71.02977775 -12.625 74.1875 C-11.32416275 78.78025191 -9.75091973 81.34382021 -5.9375 84.375 C-2.72064421 85.98342789 0.5736009 85.84278535 4.0625 85.375 C8.42600222 83.15208378 11.15794338 80.92477416 13.0625 76.375 C13.60995875 71.26538503 12.94388573 68.57702085 10.0625 64.375 C10.0625 63.715 10.0625 63.055 10.0625 62.375 C4.80965873 60.01575843 -0.60026825 59.297281 -6.24609375 58.3515625 C-11.66367044 56.91834115 -15.59714809 54.20844059 -19.1875 49.9375 C-19.66703125 49.38191406 -20.1465625 48.82632813 -20.640625 48.25390625 C-24.87019131 42.12613096 -24.60244555 35.553002 -23.9375 28.375 C-22.2400518 21.21993356 -18.0359782 16.35767964 -11.9375 12.375 C-9.55165917 11.36854361 -7.50040166 10.85554406 -4.9375 10.375 C-4.97875 9.09625 -5.02 7.8175 -5.0625 6.5 C-5.1328125 4.3203125 -5.1328125 4.3203125 -4.9375 2.375 C-2.9375 0.375 -2.9375 0.375 0 0 Z " fill="#000000" transform="translate(241.9375,68.625)"/>
<path d="M0 0 C2.85403585 5.36137753 5.6841251 10.73453708 8.49316406 16.11962891 C9.51343231 18.06990835 10.53898509 20.01743079 11.56933594 21.96240234 C13.12472861 24.90437419 14.65800989 27.85699479 16.1875 30.8125 C16.68096924 31.73627441 17.17443848 32.66004883 17.68286133 33.61181641 C21.03225751 40.15669647 21.03225751 40.15669647 20.86328125 44.57421875 C20 47 20 47 19 48 C16.66702567 48.04092937 14.33294775 48.04241723 12 48 C2.40988567 29.91081007 2.40988567 29.91081007 -2.125 20.9375 C-2.68445313 19.83277344 -3.24390625 18.72804688 -3.8203125 17.58984375 C-5 15 -5 15 -5 13 C-5.62648438 13.09539062 -6.25296875 13.19078125 -6.8984375 13.2890625 C-7.71570313 13.39992188 -8.53296875 13.51078125 -9.375 13.625 C-10.18710937 13.74101562 -10.99921875 13.85703125 -11.8359375 13.9765625 C-12.55007813 13.98429687 -13.26421875 13.99203125 -14 14 C-16 12 -16 12 -16.625 9.1875 C-16 6 -16 6 -14.28125 4.53125 C-9.26809573 1.40711039 -5.97115586 -0.12980774 0 0 Z " fill="#000000" transform="translate(401,255)"/>
</svg>
