<svg width="209" height="42" viewBox="0 0 209 42" fill="none" xmlns="http://www.w3.org/2000/svg">
<path d="M16.5468 0.622616L3.12819 1.38667L0.303222 14.5268L13.7219 13.7628L27.1405 12.9987L16.5468 0.622616Z" fill="#FB3800"/>
<path d="M0.300066 14.5268L13.7187 13.7628L10.8937 26.9029L0.300066 14.5268Z" fill="#FB6000"/>
<path d="M26.8516 27.6464L24.0266 40.7866L10.608 41.5506L13.4329 28.4105L16.2579 15.2703L26.8516 27.6464Z" fill="#FB3800"/>
<path d="M10.5969 41.5507L13.4219 28.4106L0.0032577 29.1746L10.5969 41.5507Z" fill="#FB6000"/>
<path d="M190.992 24.8495V0.570312H207.816V5.54047H195.987V9.78995H207.816V14.8098H195.987V19.8545H208.736V24.8495H190.992Z" fill="#2B2B2B"/>
<path d="M152.348 24.8495H146.508C146.856 24.3028 150.434 18.4877 154.013 12.7223C157.591 6.95696 161.195 1.16673 161.518 0.570312H164.972C165.767 1.6389 179.311 23.7312 180.007 24.8495H174.142L168.426 15.605H158.088L152.348 24.8495ZM170.837 5.54047L167.755 0.570312H181.15C185.25 0.570312 188.655 3.97487 188.655 8.07525C188.655 11.6289 186.12 14.6856 182.815 15.4062L188.655 24.8495H182.765L173.968 10.61H181.15C182.541 10.61 183.66 9.49174 183.66 8.07525C183.66 6.68361 182.541 5.54047 181.15 5.54047H170.837ZM161.17 10.61H165.32L163.257 7.25517L161.17 10.61Z" fill="#2B2B2B"/>
<path d="M132.159 24.8495H127.462C127.089 23.9797 118.615 1.58919 118.242 0.570312H123.585L129.823 16.9967L132.233 10.6846C130.295 5.61502 128.605 1.01763 128.406 0.570312H133.749C136.135 6.93211 137.675 10.9579 139.987 16.9967L146.299 0.570312H151.666L142.298 24.8495H137.626C137.502 24.5016 136.358 21.5444 134.892 17.6925L132.159 24.8495Z" fill="#2B2B2B"/>
<path d="M93.0703 0.570312H116.703V5.54047H107.26V24.8495H102.265V5.54047H93.0703V0.570312Z" fill="#2B2B2B"/>
<path d="M75.2266 24.8495V0.570312H92.0505V5.54047H80.2216V9.78995H90.8577V14.8098H80.2216V24.8495H75.2266Z" fill="#2B2B2B"/>
<path d="M60.3426 25.2721C54.8257 25.2721 49.8556 21.6439 48.2651 16.2761H53.6578C55.0494 18.7612 57.4599 20.2771 60.3426 20.2771C64.5176 20.2771 67.9221 16.9471 67.9221 12.6976C67.9221 8.49781 64.5176 5.11811 60.3426 5.11811C57.7581 5.11811 55.5216 6.36064 54.0305 8.47296H48.4888C50.2781 3.47795 54.9748 0.147949 60.3426 0.147949C67.276 0.147949 72.9171 5.73937 72.9171 12.6976C72.9171 19.6558 67.276 25.2721 60.3426 25.2721ZM36.7344 7.90139V7.72744C36.7344 3.75131 39.9153 0.570411 43.8914 0.570411H53.8566C51.6697 1.7384 49.8556 3.4531 48.5633 5.54057H43.966C42.7483 5.54057 41.7791 6.5346 41.7045 7.75229C41.7045 9.04453 42.7234 10.0386 44.0157 10.0386H54.9997C59.0752 10.0386 62.3804 13.3686 62.3804 17.4441C62.3804 17.9163 62.3555 18.3387 62.2561 18.8109C61.6597 18.9848 61.0136 19.1091 60.3426 19.1091C59.1746 19.1091 58.1558 18.8109 57.2363 18.289C57.3357 18.0405 57.3854 17.7672 57.3854 17.4441C57.3854 16.127 56.3913 15.0336 54.9997 15.0336H43.8914C39.9153 15.0336 36.7344 11.8278 36.7344 7.90139ZM36.7344 17.4441H41.7294C41.7294 18.7612 42.798 19.8298 44.0902 19.8546H48.5633C49.8804 22.0166 51.6448 23.6816 53.8566 24.8496H44.0902C40.0147 24.8496 36.7344 21.4202 36.7344 17.4441Z" fill="#FB3800"/>
<path d="M36.7344 28.2544H208.734" stroke="#D9D9D9" stroke-width="0.497016" stroke-linecap="round"/>
<path d="M77.9002 41.8526C76.3346 41.8526 74.7988 41.3009 74.0234 40.4957L74.4558 39.6458C75.2014 40.3764 76.5284 40.9132 77.9002 40.9132C79.8534 40.9132 80.7033 40.0931 80.7033 39.0643C80.7033 36.2015 74.2769 37.9609 74.2769 34.0991C74.2769 32.5634 75.4698 31.2363 78.1238 31.2363C79.3017 31.2363 80.5244 31.5793 81.3594 32.1608L80.9866 33.0405C80.092 32.459 79.0483 32.1757 78.1238 32.1757C76.2153 32.1757 75.3654 33.0256 75.3654 34.0693C75.3654 36.9321 81.7918 35.2025 81.7918 39.0047C81.7918 40.5405 80.5691 41.8526 77.9002 41.8526Z" fill="#2B2B2B"/>
<path d="M104.642 40.8087H110.92V41.763H103.539V31.3257H110.696V32.28H104.642V35.9927H110.04V36.932H104.642V40.8087Z" fill="#2B2B2B"/>
<path d="M136.34 41.763V32.28H132.672V31.3257H141.111V32.28H137.443V41.763H136.34Z" fill="#2B2B2B"/>
<path d="M167.161 41.808C164.492 41.808 162.867 40.2574 162.867 37.2603V31.2812H163.971V37.2156C163.971 39.6908 165.134 40.824 167.161 40.824C169.204 40.824 170.367 39.6908 170.367 37.2156V31.2812H171.441V37.2603C171.441 40.2574 169.83 41.808 167.161 41.808Z" fill="#2B2B2B"/>
</svg>
