<svg width="173" height="42" viewBox="0 0 173 42" fill="none" xmlns="http://www.w3.org/2000/svg">
<path d="M154.508 24.7016V0.422363H171.332V5.39252H159.503V9.642H171.332V14.6619H159.503V19.7066H172.251V24.7016H154.508Z" fill="white"/>
<path d="M115.863 24.7016H110.023C110.371 24.1549 113.95 18.3398 117.528 12.5744C121.107 6.80901 124.71 1.01878 125.033 0.422363H128.488C129.283 1.49095 142.826 23.5833 143.522 24.7016H137.658L131.942 15.4571H121.604L115.863 24.7016ZM134.352 5.39252L131.271 0.422363H144.665C148.766 0.422363 152.17 3.82692 152.17 7.9273C152.17 11.481 149.636 14.5376 146.33 15.2583L152.17 24.7016H146.281L137.484 10.4621H144.665C146.057 10.4621 147.175 9.34379 147.175 7.9273C147.175 6.53566 146.057 5.39252 144.665 5.39252H134.352ZM124.685 10.4621H128.835L126.773 7.10722L124.685 10.4621Z" fill="white"/>
<path d="M95.6742 24.7016H90.9775C90.6047 23.8318 82.1306 1.44125 81.7578 0.422363H87.1007L93.3383 16.8487L95.7488 10.5366C93.8104 5.46707 92.1206 0.869677 91.9218 0.422363H97.2647C99.6504 6.78416 101.191 10.81 103.502 16.8487L109.814 0.422363H115.182L105.813 24.7016H101.141C101.017 24.3537 99.874 21.3964 98.4078 17.5446L95.6742 24.7016Z" fill="white"/>
<path d="M56.5859 0.422363H80.219V5.39252H70.7757V24.7016H65.7807V5.39252H56.5859V0.422363Z" fill="white"/>
<path d="M38.7422 24.7016V0.422363H55.5662V5.39252H43.7372V9.642H54.3733V14.6619H43.7372V24.7016H38.7422Z" fill="white"/>
<path d="M23.8582 25.1241C18.3414 25.1241 13.3712 21.4959 11.7808 16.1282H17.1734C18.565 18.6132 20.9756 20.1291 23.8582 20.1291C28.0332 20.1291 31.4377 16.7991 31.4377 12.5496C31.4377 8.34986 28.0332 4.97016 23.8582 4.97016C21.2738 4.97016 19.0372 6.21269 17.5461 8.32501H12.0044C13.7937 3.33 18.4905 0 23.8582 0C30.7916 0 36.4327 5.59142 36.4327 12.5496C36.4327 19.5079 30.7916 25.1241 23.8582 25.1241ZM0.25 7.75344V7.57949C0.25 3.60336 3.4309 0.422462 7.40703 0.422462H17.3722C15.1853 1.59045 13.3712 3.30515 12.079 5.39262H7.48158C6.26389 5.39262 5.29471 6.38665 5.22016 7.60434C5.22016 8.89658 6.23904 9.89061 7.53128 9.89061H18.5153C22.5909 9.89061 25.896 13.2206 25.896 17.2961C25.896 17.7683 25.8712 18.1908 25.7718 18.6629C25.1753 18.8369 24.5292 18.9611 23.8582 18.9611C22.6903 18.9611 21.6714 18.6629 20.7519 18.1411C20.8513 17.8926 20.901 17.6192 20.901 17.2961C20.901 15.9791 19.907 14.8856 18.5153 14.8856H7.40703C3.4309 14.8856 0.25 11.6799 0.25 7.75344ZM0.25 17.2961H5.24501C5.24501 18.6132 6.31359 19.6818 7.60583 19.7067H12.079C13.3961 21.8687 15.1605 23.5337 17.3722 24.7017H7.60583C3.5303 24.7017 0.25 21.2723 0.25 17.2961Z" fill="white"/>
<path d="M0.25 28.1064H172.25" stroke="white" stroke-width="0.497016" stroke-linecap="round"/>
<path d="M41.4158 41.7046C39.8502 41.7046 38.3144 41.1529 37.5391 40.3478L37.9715 39.4979C38.717 40.2285 40.044 40.7653 41.4158 40.7653C43.3691 40.7653 44.219 39.9452 44.219 38.9164C44.219 36.0536 37.7925 37.813 37.7925 33.9512C37.7925 32.4154 38.9854 31.0884 41.6394 31.0884C42.8174 31.0884 44.04 31.4313 44.875 32.0128L44.5023 32.8925C43.6076 32.311 42.5639 32.0277 41.6394 32.0277C39.7309 32.0277 38.881 32.8776 38.881 33.9214C38.881 36.7842 45.3074 35.0546 45.3074 38.8567C45.3074 40.3925 44.0848 41.7046 41.4158 41.7046Z" fill="white"/>
<path d="M68.1581 40.6608H74.4354V41.6151H67.0547V31.1777H74.2117V32.132H68.1581V35.8447H73.5557V36.7841H68.1581V40.6608Z" fill="white"/>
<path d="M99.8555 41.6151V32.132H96.1875V31.1777H104.627V32.132H100.959V41.6151H99.8555Z" fill="white"/>
<path d="M130.677 41.6601C128.008 41.6601 126.383 40.1094 126.383 37.1124V31.1333H127.486V37.0677C127.486 39.5428 128.649 40.676 130.677 40.676C132.72 40.676 133.883 39.5428 133.883 37.0677V31.1333H134.956V37.1124C134.956 40.1094 133.346 41.6601 130.677 41.6601Z" fill="white"/>
</svg>
